<svg width="210" height="219" viewBox="0 0 210 219" fill="none" xmlns="http://www.w3.org/2000/svg">
<path d="M209.586 109.292C209.461 107.635 209.046 106.062 208.341 104.571C207.553 101.962 206.35 99.601 204.691 97.4061C202.576 94.5485 200.087 91.9808 197.225 89.8687C195.4 88.4606 193.327 87.5081 191.128 87.0526C189.262 86.3071 187.354 86.1829 185.321 86.597C180.095 88.1293 174.911 89.8273 169.726 91.6081C175.035 87.094 180.386 82.5384 185.695 78.0243C186.815 77.0718 187.935 76.1193 189.054 75.1667C190.672 74.09 191.709 72.6405 192.165 70.8183C193.078 68.9546 193.41 67.0082 193.161 64.8961C193.078 62.4526 192.538 60.092 191.543 57.8971C190.755 55.288 189.552 52.9274 187.893 50.7325C186.69 49.3244 185.529 47.9163 184.326 46.5083C182.003 44.1477 179.349 42.284 176.321 40.9588C174.994 40.5861 173.625 40.2133 172.298 39.8406C169.767 39.4265 167.403 39.9234 165.246 41.3315C158.403 44.2719 151.559 47.3365 144.798 50.484C145.545 48.786 145.835 46.9638 145.586 45.0174C145.337 43.485 145.088 41.9527 144.881 40.4204C144.259 37.8113 143.222 35.4093 141.729 33.2144C140.941 31.5164 139.862 30.0255 138.576 28.7002C137 26.5881 135.092 24.7659 132.853 23.275C131.484 22.5296 130.115 21.7841 128.746 21.0386C126.258 19.9205 123.645 19.5892 120.949 20.0033C115.556 22.1982 110.247 24.5174 104.98 26.9194C105.229 24.7659 105.063 22.6538 104.358 20.5417C103.735 17.9326 102.698 15.5306 101.205 13.3356C99.961 10.8508 98.3019 8.65586 96.2695 6.7094C94.9422 5.63264 93.6564 4.51446 92.3291 3.4377C89.882 1.69831 87.1445 0.538716 84.1996 0.041748C82.9553 0.083162 81.6694 0.0831621 80.4251 0.124576C77.9365 0.662958 76.0285 1.98821 74.7013 4.14173C69.8899 9.73262 64.9541 15.2407 59.8938 20.6659C46.3307 35.078 32.104 48.8689 17.2551 61.9143C12.9414 65.6829 8.62778 69.4102 4.23118 73.0546C2.61356 74.1314 1.57662 75.5809 1.12037 77.4031C0.207869 79.2667 -0.12395 81.2132 0.124914 83.3253C0.373778 84.8576 0.622643 86.3899 0.83003 87.9223C1.45219 90.5313 2.48913 92.9333 3.98231 95.1283C4.77038 96.8263 5.84879 98.3172 7.13459 99.6424C8.71073 101.755 10.6187 103.577 12.8585 105.068C14.2272 105.813 15.596 106.559 16.9647 107.304C19.4534 108.422 22.0665 108.754 24.7625 108.339C28.3295 107.221 31.8551 106.02 35.3807 104.736C29.325 111.073 23.2278 117.368 16.9647 123.497C13.8954 126.52 10.7846 129.502 7.6738 132.484C6.05618 133.56 5.01925 135.01 4.56299 136.832C3.65049 138.696 3.31867 140.642 3.56754 142.754C3.65049 145.198 4.1897 147.558 5.18516 149.753C5.97323 152.362 7.17607 154.723 8.83516 156.918C10.038 158.326 11.1994 159.734 12.4022 161.142C14.725 163.503 17.3795 165.366 20.4074 166.692C21.942 167.23 23.6426 167.727 25.3432 167.851C24.5966 169.549 24.3062 171.413 24.5551 173.359C24.638 175.803 25.1773 178.163 26.1727 180.358C26.9608 182.967 28.1636 185.328 29.8227 187.523C31.0256 188.931 32.1869 190.339 33.3898 191.747C35.7125 194.108 38.3671 195.971 41.3949 197.297C42.7222 197.669 44.0909 198.042 45.4182 198.415C47.9483 198.829 50.3126 198.332 52.4694 196.924C66.6132 188.475 80.7569 180.027 95.0666 171.868C99.8365 169.135 104.606 166.485 109.459 163.834C103.943 170.792 98.7581 178.081 94.1541 185.701C93.0757 187.44 92.578 189.304 92.6195 191.292C92.2877 193.528 92.495 195.764 93.2002 198.001L94.9422 202.805C96.0621 205.372 97.5968 207.692 99.5047 209.721C100.542 211.212 101.786 212.454 103.238 213.49C104.98 215.187 107.012 216.471 109.293 217.382C112.943 218.666 116.967 219.37 120.409 217.01C130.862 209.845 141.355 202.68 151.974 195.723C152.72 195.226 153.508 194.729 154.296 194.232C155.25 195.889 156.37 197.379 157.656 198.788C159.232 200.9 161.14 202.722 163.38 204.213C164.749 204.958 166.117 205.704 167.486 206.449C169.975 207.567 172.588 207.899 175.284 207.484L178.561 206.076C180.593 204.544 181.879 202.473 182.377 199.947C182.625 198.912 182.957 197.918 183.289 196.924C185.736 191.333 189.137 186.239 192.621 181.269C196.894 175.14 201.207 169.011 205.479 162.882C206.558 161.142 207.056 159.279 207.014 157.291C207.346 155.054 207.139 152.818 206.433 150.582C205.853 148.966 205.272 147.393 204.691 145.778C203.571 143.21 202.037 140.891 200.129 138.861C199.092 137.371 197.848 136.128 196.396 135.093C195.815 134.554 195.235 134.016 194.571 133.56C199.258 128.839 203.82 124.035 208.341 119.19C208.798 118.03 209.254 116.829 209.71 115.67C210.125 113.558 210.125 111.404 209.586 109.292Z" fill="black"/>
</svg>
